<svg id="Layer_1" data-name="Layer 1" xmlns="http://www.w3.org/2000/svg" viewBox="0 0 1080 1080"><title>MS Logo with mindspark</title><path d="M757.37,438.13c-23.71-50.93-33.34-72.3-31.27-118.4,2.18-48.61,27.11-153.11,27.11-153.11s-34.49,77.06-51.1,121.53c-16.88,45.19-35.58,128.05-35.58,128.05s3.94,10.37,6.06,15.48A290,290,0,0,0,686,460.08c12.19,22.06,41.67,64,32.17,121.72-11.41,69.27-77.38,174.91-78.33,176.46,1.44-1.1,112-76.81,138-162.58C792,548.75,781.08,489.05,757.37,438.13Z"/><path d="M744.28,166.62S709.53,243,692.7,288.15,657.11,416.2,657.11,416.2l-110.59,162L455,470.51,295.9,793.38,434.52,301.84l112,153.69Z"/><polygon points="222.74 821.06 222.74 924.56 238.63 924.56 238.63 871.51 277.48 926.88 316.32 871.51 316.32 924.56 332.21 924.56 332.21 821.06 277.48 899.2 222.74 821.06"/><rect x="342.81" y="845.69" width="12.95" height="78.87"/><polygon points="421.68 897.2 366.35 844.55 366.35 924.56 378.71 924.56 378.71 873.58 434.04 926.22 434.04 845.69 421.68 845.69 421.68 897.2"/><path d="M462,845.69H440.51v78.87H462A39.69,39.69,0,0,0,501.58,885,39.38,39.38,0,0,0,462,845.69Zm19.14,58.49a26.19,26.19,0,0,1-19.14,8h-8.54V858.05H462a27,27,0,0,1,19.14,46.13Z"/><path d="M559.73,873.84q-5.31-4.19-19.59-7.57-8.16-1.92-11.22-4-5.11-3.45-5.11-10.62a14.51,14.51,0,0,1,14.47-14.48A14.38,14.38,0,0,1,551.16,845l14.21-7.17a30.26,30.26,0,0,0-11.22-12.15,29.63,29.63,0,0,0-15.87-4.52,30.37,30.37,0,0,0-30.4,30.41q0,15.6,9,22.57,5.31,4.19,19.59,7.57,8.16,1.92,11.21,4,5.05,3.45,5.05,10.62a13.14,13.14,0,0,1-4.58,9.76,16.56,16.56,0,0,1-11.55,4.65,17.29,17.29,0,0,1-10.49-3.59,13,13,0,0,1-5.38-7.77l-15.6,3.32q2.19,10.29,11.49,17.2a32.54,32.54,0,0,0,20,6.77,32,32,0,0,0,22.37-8.9q9.77-9,9.76-21.44Q568.69,880.81,559.73,873.84Z"/><path d="M623.45,872.28a26.7,26.7,0,0,0-26.84-26.59H572.36v78.87H585.3V899.25h11.31a27.08,27.08,0,0,0,26.84-27Zm-16.7,10a13.69,13.69,0,0,1-10.14,4.07H585.3V858.05h11.31a13.76,13.76,0,0,1,10.14,4.15,14,14,0,0,1,0,20Z"/><path d="M613.79,924.56h13.53l6.24-14.72h29.23L669,924.56h13.57l-34.43-80.79Zm24.71-26.49,9.68-22.68,9.67,22.68Z"/><path d="M728.4,891.27a26.66,26.66,0,0,0-19-45.58H684.19v78.87h12.36V899.25h9.64l16.6,25.31h14.87l-17.94-27.47A26.51,26.51,0,0,0,728.4,891.27Zm-19-4.38H696.55V858.05h12.87a14.37,14.37,0,0,1,14.41,14.26,14.72,14.72,0,0,1-14.41,14.58Z"/><polygon points="797.55 853.09 801.87 878.01 857.26 804.25 809.57 854.08 804.32 828.85 787.55 845.69 787.51 845.69 774.87 858.09 772.89 859.81 772.89 859.81 752.46 880.29 752.46 845.69 740.1 845.69 740.1 924.56 752.46 924.56 752.46 897.98 759.84 890.69 786.99 924.56 802.96 924.56 768.84 881.8 797.55 853.09"/></svg>